<svg xmlns="http://www.w3.org/2000/svg" viewBox="0 0 194.5 32.63"><defs><style>.cls-1{fill:#0c58b6;}</style></defs><title>Vervoe2020</title><g id="Layer_2" data-name="Layer 2"><g id="Layer_1-2" data-name="Layer 1"><path class="cls-1" d="M89.53.5V8.67a13.91,13.91,0,0,0-3.25-.45c-4.34,0-7.84,2.62-7.84,8.42v16h-9V.1h9V4.33A9.41,9.41,0,0,1,86.54.12,16.88,16.88,0,0,1,89.53.5Z"></path><path class="cls-1" d="M159.21,16.36a16.27,16.27,0,0,1-32.54,0,16.27,16.27,0,1,1,32.54,0Zm-23.73,0a7.46,7.46,0,1,0,14.92,0,7.46,7.46,0,1,0-14.92,0Z"></path><polygon class="cls-1" points="25.86 0 17.54 15.6 9.2 0.03 0 0 17.57 32.55 35.07 0 25.86 0"></polygon><polygon class="cls-1" points="118.5 0 110.18 15.6 101.84 0.03 92.64 0 110.21 32.55 127.71 0 118.5 0"></polygon><path class="cls-1" d="M183.72,23.77A7.51,7.51,0,0,1,179,25.16a7.68,7.68,0,0,1-8-6.69h23.29c.12-1,.19-2.49.19-3.19A15.25,15.25,0,0,0,179.06,0a16,16,0,0,0-16.27,16.14,16.26,16.26,0,0,0,16.46,16.46,16.51,16.51,0,0,0,8.23-2Zm-5-16.47a6.19,6.19,0,0,1,6.44,5.42H171.47A7,7,0,0,1,178.68,7.3Z"></path><path class="cls-1" d="M54.94,23.77a7.52,7.52,0,0,1-4.73,1.39,7.68,7.68,0,0,1-8-6.69H65.52a31,31,0,0,0,.2-3.19A15.25,15.25,0,0,0,50.28,0,16,16,0,0,0,34,16.17,16.26,16.26,0,0,0,50.47,32.63a16.51,16.51,0,0,0,8.23-2ZM49.9,7.3a6.19,6.19,0,0,1,6.44,5.42H42.69A7,7,0,0,1,49.9,7.3Z"></path></g></g></svg>